<?xml version="1.0" encoding="utf-8"?>
<!-- Svg Vector Icons : http://www.onlinewebfonts.com/icon -->
<!DOCTYPE svg PUBLIC "-//W3C//DTD SVG 1.1//EN" "http://www.w3.org/Graphics/SVG/1.1/DTD/svg11.dtd">
<svg fill='orange' version="1.1" xmlns="http://www.w3.org/2000/svg" xmlns:xlink="http://www.w3.org/1999/xlink" x="0px" y="0px" viewBox="0 0 1000 1000" enable-background="new 0 0 1000 1000" xml:space="preserve">
<metadata> Svg Vector Icons : http://www.onlinewebfonts.com/icon </metadata>
<g><g><g id="_x35_6_60_"><g><path d="M924.1,755.2H75.9c-6,0-10.8,4.8-10.8,10.8v63.9c0,37.3,30.4,67.7,67.7,67.7h734.6c37.3,0,67.7-30.3,67.7-67.7V766C934.9,760,930.1,755.2,924.1,755.2z"/><path d="M925.8,578.3H74.2c-35.2,0-63.9,32.3-63.9,71.9c0,39.7,28.6,71.9,63.9,71.9h851.6c35.2,0,63.9-32.3,63.9-71.9C989.7,610.6,961,578.3,925.8,578.3z"/><path d="M75.4,473.6h849.1c0,0,0,0,0,0c6,0,10.8-4.8,10.8-10.8c0-0.3,0-0.6,0-0.9c-0.2-113.5-44.7-206.9-128.6-270.4c-77.1-58.2-183.1-89-306.7-89c-123.6,0-229.7,30.8-306.7,89C109.1,255.1,64.6,348.9,64.6,462.8C64.6,468.8,69.5,473.6,75.4,473.6z"/><path d="M33.1,557.5h933.8c12.8,0,23.1-10.3,23.1-23.1c0-12.8-10.3-23.1-23.1-23.1H33.1c-12.8,0-23.1,10.3-23.1,23.1C10,547.1,20.3,557.5,33.1,557.5z"/></g></g></g><g></g><g></g><g></g><g></g><g></g><g></g><g></g><g></g><g></g><g></g><g></g><g></g><g></g><g></g><g></g></g>
</svg>